<svg xmlns="http://www.w3.org/2000/svg" viewBox="0 0 145 145"><path fill="#ffa22d" d="M47.218487 95.249557l35.735609 5.852153-4.837784 11.80375H47.218486zM26.472805 71.19339h15.669613v45.02254H26.472805zm5.296766-34.870408h22.511274v84.306908H31.769571zM38.390536 25.1318h46.12604v27.964309h-46.12604zm-.318654 19.922238h51.746654v56.159592H38.071882z"/><path fill="#fff" d="M73.766324 18.549471c-1.064076-.03179-2.172328.0074-3.323024.121171-27.291693 2.660793-31.496161 3.842917-37.34022 10.49906-5.092169 5.79968-8.719125 18.415303-8.765624 30.486615-.02384 6.396113-.546613 10.56389-1.540362 12.302291-1.796838 3.143256-2.211603 35.006432-.533983 41.045272 1.31169 4.72153 8.199715 11.50193 12.784922 12.58574 4.999437 1.18162 5.442347 1.17751 11.439691-.10894 3.075029-.65942 6.825005-2.39899 8.726613-4.04803 2.162356-1.87501 5.07285-3.12099 8.278882-3.54688 6.989617-.9286 16.200957-4.35394 20.474387-7.61351 4.89839-3.73616 9.55943-10.355743 10.98577-15.604736 1.63989-6.034731.51754-18.193184-2.27765-24.690807-2.19408-5.1003-2.29022-6.345858-1.58554-20.572965.67906-13.70954.55689-15.574587-1.29388-19.691885-3.25266-7.235897-8.58123-10.948418-16.029982-11.162396zm-.991951 7.227317c1.145573.08632 2.217609.572867 3.982301 1.517752 6.857832 3.671952 7.780892 7.198333 6.580382 25.122139-1.01358 15.13281-.98941 15.485266 1.44384 20.061534 5.66684 10.65782 4.43977 20.965726-3.43394 28.825187-5.17778 5.16835-11.114491 7.70459-22.100997 9.44135-3.834314.60608-6.471949 1.77824-8.609556 3.82614-2.377809 2.27817-4.348421 3.05295-8.62597 3.39501-5.247936.41969-5.73967.23967-9.223635-3.38471-3.680406-3.8289-3.680764-3.82846-4.037776-20.057405-.327486-14.892366-.179077-16.517565 1.803234-19.72475 1.886353-3.052183 2.084045-4.620372 1.567061-12.370052-.513134-7.691804-.225191-10.016275 2.156491-17.453251 2.080824-6.497071 3.610321-9.33777 6.29901-11.698426 3.89892-3.42331 11.055993-5.47013 18.500672-5.290611 2.602563.06276 6.773821-.534123 9.268829-1.326755 2.065285-.656169 3.284459-.969517 4.430054-.883152zm-1.606086 9.903461c-2.891222 0-3.199547.351317-3.684525 4.206174-.366048 2.908114-.755499 3.653695-1.261018 2.419375-2.097205-5.120506-15.559326-6.691535-19.722695-2.302292-5.217181 5.50013-7.148862 23.013041-3.105356 28.153514 2.815832 3.579749 7.337172 5.9047 11.48281 5.9047 5.900732 0 12.58971 2.271293 14.740159 5.005131 2.856418 3.631334 2.766198 10.043467-.180947 12.789032-1.241631 1.156691-4.768312 2.663377-7.835265 3.349702-4.821211 1.078988-5.937149 1.012432-8.243979-.499052-3.316158-2.172814-6.900778-9.016709-6.900778-13.173032 0-3.430998-2.574302-4.976833-6.309284-3.791381-1.968612.624823-2.103092 1.590822-2.103092 15.107797 0 9.829443.4021 14.842373 1.261034 15.701313 1.740734 1.74071 2.612581 1.59358 5.058524-.85232 1.722444-1.72253 1.985204-2.91752 1.419179-6.45712-.694603-4.343939-.69458-4.344351 2.706914-1.829981 4.228672 3.125811 10.733557 3.083531 19.309872-.125094 7.774309-2.908783 11.254816-7.006651 11.254816-13.25526 0-10.161426-6.32522-16.413379-17.987207-17.779787-9.036365-1.058765-11.301786-2.286594-12.103055-6.557788-.878138-4.680742 1.655881-15.966432 3.902218-17.381303 3.524545-2.219964 6.822481-.03187 9.737083 6.465353 1.5293 3.40777 2.780855 7.231653 2.780855 8.498631 0 5.269398 4.394557 8.368368 7.153392 5.044165.606056-.730247 1.256173-7.473284 1.443832-14.984578.341398-13.656783.341009-13.655718-2.813718-13.655718z"/><path fill="#fff" d="M72.672425 86.791247h48.890151v29.967373H72.672425z"/><path d="M75.544832 119.51698c-1.328274-.1554-1.769054-.41577-1.776666-1.04947-.0017-.15318-.251655-.37292-.555146-.4883-.30349-.11539-.614768-.38333-.691726-.59542-.07696-.21209-.434699-.80275-.794978-1.31257-.655053-.92695-.655053-.92695-.856932-6.99138-.215306-6.46772-.06434-18.202814.251452-19.54605.104705-.445354.349167-.968543.543254-1.162628.194087-.194086.352885-.47698.352885-.628647 0-.279451.991531-1.347638 2.567836-2.766357.865842-.77928.865842-.77928 22.690295-.76468 23.51557.01569 22.28709-.0441 23.398 1.140233.26462.282135.6236.512975.79771.512975.17412 0 .52361.319525.77667.710057.25304.390532.70517 1.044132 1.00474 1.452434.54466.742378.54466.742378.54466 13.874963 0 7.81753-.0856 13.43122-.21162 13.87046-.11639.40582-.41134.87775-.65544 1.04873-.24411.17097-.44382.45153-.44382.62345 0 .28702-.95791 1.03086-2.37912 1.84744-.49532.28459-3.37364.33163-21.87223.35743-11.71603.0164-21.926445-.0433-22.689824-.13267zm43.590044-2.75835c.33736-.25191.959-.94013 1.38143-1.52937.76805-1.07133.76805-1.07133.76805-13.24378 0-13.902283.11887-13.052278-1.77692-12.705932-.76778.140271-1.11947.328543-1.3036.697878-.13869.278188-.46089.65199-.716.830675-.25512.178693-.46386.448706-.46386.600025 0 .151328-.31952.575195-.71005.941929-.92983.873177-3.23602 3.471278-3.68274 4.148916-.19299.292755-.55045.672048-.79434.84288-.24389.170824-.50405.552123-.57814.84733-.0741.295199-.32609.597474-.55999.67171-.23391.07424-.49283.347815-.57539.607944-.0826.260121-.70207 1.046455-1.37668 1.747395-.67462.70094-1.53738 1.63829-1.91726 2.08301-.37989.44472-1.15353 1.34932-1.71921 2.01022-.56569.6609-1.20841 1.34912-1.42828 1.52937-.21987.18024-.50068.59808-.62405.92854-.12336.33045-.37288.60082-.55449.60082-.1816 0-.46495.31952-.62965.71006-.23351.5537-.5108.77398-1.2592 1.00032-.52785.15964-1.12164.43607-1.31953.61429-.19789.1782-.89844.3796-1.5568.44756-1.08798.11228-1.36861.04-3.08127-.79269-1.08344-.52682-1.88427-1.05131-1.88427-1.23409 0-.17482-.23496-.42491-.52211-.55574-.28717-.13084-.63266-.48053-.76778-.77708-.13512-.29655-.48862-.80187-.78557-1.12293s-1.28434-1.45387-2.19419-2.51735c-.90987-1.06348-2.18942-2.46447-2.84346-3.1133-.65403-.64883-1.18916-1.324923-1.18916-1.502427 0-.177504-.24579-.483784-.5462-.680627-.30041-.196835-.5462-.50376-.5462-.682056 0-.178297-.27335-.58484-.60744-.903416-.33409-.318584-1.36588-1.464086-2.29286-2.545567-.92698-1.081481-1.920742-2.212119-2.208345-2.512529-.287606-.300409-.588117-.762385-.667801-1.026601-.07968-.264225-.336484-.541224-.570665-.61555-.234183-.07432-.425786-.273721-.425786-.443099 0-.169379-.233343-.460853-.518542-.647721-.666719-.436849-2.244085-.223581-2.548125.344521-.127605.238428-.210543 5.034933-.210543 12.176252 0 11.45203.01228 11.79845.436962 12.33836.240329.30553.436961.66617.436961.80143 0 .44502 1.566491 1.82298 2.26496 1.99236.37649.0913 9.992834.15028 21.369644.13105 20.63468-.0349 20.6866-.0361 21.29849-.49299zm-21.46416-8.58023c.0645-.10437.51557-.25347 1.00237-.3313.65188-.10425.94972-.2834 1.13041-.67995.13492-.29613.4268-.59601.64861-.66641.22181-.0704.46204-.36206.53384-.64814.0718-.28608.36698-.67506.65596-.8644.28896-.18934.5254-.46383.5254-.60996 0-.14614.23843-.51256.52987-.81427 1.57917-1.63488 2.67311-2.8384 3.37811-3.716527.43414-.540736 1.05972-1.243816 1.39017-1.5624.33045-.318584.60082-.720643.60082-.893473 0-.172831.24579-.426221.5462-.563107.32316-.147231.5462-.431126.5462-.695193 0-.260757.22096-.547004.53144-.688464.29228-.133178.64697-.521067.78817-.861971.14122-.340912.44281-.678893.67022-.751064.2274-.07217.41346-.22558.41346-.340896 0-.252004.93304-1.323427 2.81108-3.227995.76503-.775828 1.47456-1.702101 1.57674-2.05838.20069-.69976-.0685-1.463723-.51747-1.469041-.24873-.0033-35.91431-.0017-36.25241.0017-.0859.000652-.25469.185448-.3751.410424-.35585.66493.0614 1.575901 1.32301 2.888858.64602.672287 1.51869 1.636313 1.93927 2.142285.42057.505972 1.0842 1.227541 1.47474 1.60349.39054.375941.71006.806298.71006.956338 0 .150039.20561.338055.45691.417815.2513.07977.59851.483924.77158.898147.17308.414223.45531.8071.62719.873053.17187.06598.37357.312374.44823.547598.0747.235224.44709.750239.82762 1.144478.38054.39424 1.06951 1.151291 1.53105 1.682323.46154.53104 1.17433 1.33295 1.58398 1.78201.40965.44907.74482.91608.74482 1.03779 0 .12171.1525.22129.33887.22129.18638 0 .48116.34056.65508.75681.17392.41624.51301.86212.75354.99084.24052.12873.43732.34941.43732.49041 0 .47767 2.16973 2.35004 2.72326 2.35004.29049 0 .58893.0983.66319.21848.16609.26873.69684.28652.85619.0287z"/></svg>